<?xml version="1.0" encoding="UTF-8" ?>
<!DOCTYPE svg PUBLIC "-//W3C//DTD SVG 1.1//EN" "http://www.w3.org/Graphics/SVG/1.1/DTD/svg11.dtd">
<svg width="88px" height="87px" viewBox="0 0 88 87" version="1.1" xmlns="http://www.w3.org/2000/svg">
<g id="#70bbf7ff">
<path fill="#70bbf7" opacity="1.00" d=" M 8.65 0.00 L 80.57 0.00 C 83.41 2.21 86.54 4.20 88.00 7.68 L 88.00 79.56 C 86.61 82.49 84.10 84.63 81.83 86.87 L 82.97 87.00 L 79.41 87.00 C 81.84 85.28 84.37 83.48 85.91 80.86 C 87.59 78.24 87.19 74.98 87.31 72.02 C 87.15 61.83 87.52 51.62 87.11 41.43 C 80.36 44.40 74.00 48.16 67.34 51.33 C 62.88 53.53 57.07 52.99 53.26 49.70 C 48.28 45.36 44.80 39.52 39.66 35.33 C 33.54 30.67 24.23 32.27 19.48 38.15 C 13.60 45.31 7.24 52.13 1.59 59.46 C 0.91 64.94 1.40 70.51 1.32 76.03 C 1.23 81.14 5.72 84.62 9.68 87.00 L 6.44 87.00 C 4.61 85.32 2.87 83.54 1.24 81.66 C 0.93 81.10 0.31 79.97 0.00 79.41 L 0.00 14.10 C 0.50 11.83 0.49 9.50 0.71 7.19 C 1.43 5.57 2.71 4.32 3.76 2.93 C 5.40 1.97 7.00 0.95 8.65 0.00 M 58.46 13.65 C 53.54 15.12 49.39 19.74 49.27 25.00 C 48.13 32.31 54.60 39.52 61.95 39.35 C 69.82 39.69 76.62 31.63 74.86 23.94 C 73.61 16.65 65.59 11.63 58.46 13.65 Z" />
</g>
<g id="#3097edff">
<path fill="#3097ed" opacity="1.00" d=" M 58.46 13.65 C 65.59 11.63 73.61 16.65 74.86 23.94 C 76.62 31.63 69.82 39.69 61.95 39.35 C 54.60 39.52 48.13 32.31 49.27 25.00 C 49.39 19.74 53.54 15.12 58.46 13.65 Z" />
<path fill="#3097ed" opacity="1.00" d=" M 19.48 38.15 C 24.23 32.27 33.54 30.67 39.66 35.33 C 44.80 39.52 48.28 45.36 53.26 49.70 C 57.07 52.99 62.88 53.53 67.34 51.33 C 74.00 48.16 80.36 44.40 87.11 41.43 C 87.52 51.62 87.15 61.83 87.31 72.02 C 87.19 74.98 87.59 78.24 85.91 80.86 C 84.37 83.48 81.84 85.28 79.41 87.00 L 9.68 87.00 C 5.72 84.62 1.23 81.14 1.32 76.03 C 1.40 70.51 0.91 64.94 1.59 59.46 C 7.24 52.13 13.60 45.31 19.48 38.15 Z" />
</g>
</svg>
