<?xml version="1.0" encoding="UTF-8" ?>
<!DOCTYPE svg PUBLIC "-//W3C//DTD SVG 1.1//EN" "http://www.w3.org/Graphics/SVG/1.1/DTD/svg11.dtd">
<svg width="316px" height="287px" viewBox="0 0 316 287" version="1.1" xmlns="http://www.w3.org/2000/svg">
<g id="#ff0000ff">
</g>
<g id="#ecececff">
<path fill="#ececec" opacity="1.00" d=" M 196.52 5.65 C 198.96 4.58 202.02 4.66 204.48 5.62 C 207.82 7.44 210.84 9.71 211.90 13.54 C 212.18 23.01 211.73 32.50 212.11 41.96 C 212.28 42.38 212.64 43.21 212.82 43.63 L 212.74 44.19 C 212.25 44.45 211.28 44.97 210.80 45.23 C 210.02 34.00 211.49 22.64 210.03 11.48 C 207.73 8.82 204.62 6.52 201.02 6.20 C 197.58 5.98 194.74 8.24 191.88 9.79 C 171.16 21.69 150.52 33.75 129.79 45.64 C 127.31 47.14 124.41 48.28 122.76 50.80 C 122.56 51.19 122.15 51.97 121.95 52.37 L 121.25 53.66 C 120.77 50.71 122.75 47.69 125.56 46.76 C 127.56 45.69 129.45 44.45 131.35 43.22 C 133.92 42.35 135.94 40.43 138.35 39.25 C 140.65 38.51 142.38 36.71 144.58 35.77 C 146.59 34.73 148.44 33.43 150.35 32.23 C 152.88 31.28 155.03 29.58 157.37 28.25 C 159.63 27.45 161.34 25.62 163.58 24.77 C 166.04 23.66 168.09 21.82 170.59 20.81 C 172.48 19.57 174.39 18.36 176.36 17.24 C 178.91 16.33 180.94 14.44 183.36 13.26 C 185.62 12.46 187.33 10.62 189.58 9.79 C 191.95 8.50 194.27 7.14 196.52 5.65 Z" />
<path fill="#ececec" opacity="1.00" d=" M 60.62 11.04 C 61.71 9.63 62.61 8.04 64.00 6.90 C 67.49 7.92 70.63 9.96 74.01 11.34 C 73.99 11.88 73.95 12.97 73.92 13.51 C 72.96 14.75 72.28 16.18 71.84 17.69 C 74.13 18.66 76.30 19.87 78.46 21.09 C 78.32 23.65 78.92 26.37 77.97 28.81 C 76.45 30.76 73.85 31.50 72.27 33.39 C 71.53 35.14 71.13 37.01 70.86 38.88 C 71.91 39.71 72.95 40.55 74.01 41.38 C 73.98 41.91 73.93 42.97 73.90 43.50 C 72.27 45.83 71.24 48.61 69.19 50.62 C 67.61 50.45 66.20 49.69 64.83 48.95 C 63.35 50.73 61.16 52.14 60.63 54.53 C 60.12 56.56 60.05 58.67 59.92 60.76 C 57.49 62.23 55.04 63.69 52.56 65.08 C 52.02 64.74 50.95 64.06 50.41 63.72 C 49.01 62.90 47.64 62.04 46.31 61.11 C 45.49 62.61 44.58 64.05 43.64 65.48 C 41.52 64.64 39.46 63.66 37.37 62.77 C 35.80 61.82 34.25 60.84 32.72 59.83 C 33.12 57.81 33.94 55.91 35.05 54.18 C 32.59 53.67 30.04 52.59 28.40 50.63 C 27.73 48.28 28.00 45.72 28.24 43.32 C 30.32 41.73 33.14 40.95 34.57 38.62 C 35.24 36.63 35.68 34.58 36.06 32.52 C 34.92 31.69 33.95 30.66 33.02 29.61 C 34.73 26.93 36.17 24.08 37.98 21.46 C 39.25 21.81 40.52 22.11 41.81 22.35 C 43.35 21.32 44.58 19.93 45.90 18.65 C 46.24 16.14 46.68 13.64 47.07 11.14 C 49.48 9.94 51.80 8.56 54.23 7.40 C 56.48 8.38 58.60 9.64 60.62 11.04 M 57.36 25.97 C 50.90 29.79 46.91 37.14 46.94 44.61 C 47.33 44.92 48.11 45.54 48.50 45.85 C 52.48 43.86 55.72 40.54 57.81 36.62 C 59.03 33.28 60.05 29.80 59.75 26.20 C 59.15 26.14 57.96 26.03 57.36 25.97 Z" />
<path fill="#ececec" opacity="1.00" d=" M 264.25 20.03 C 264.96 19.99 266.39 19.92 267.10 19.89 C 268.06 20.88 268.94 21.94 269.92 22.92 C 271.47 22.54 273.11 21.43 274.71 22.26 C 275.86 23.22 275.88 24.80 276.26 26.13 C 277.21 25.66 278.15 25.19 279.10 24.73 C 279.82 25.64 281.26 26.49 280.55 27.85 C 279.51 31.51 275.56 32.97 272.57 34.70 C 268.22 37.30 263.80 39.75 259.43 42.30 C 257.47 43.42 255.55 44.61 253.58 45.71 C 251.31 47.20 248.85 48.59 246.03 48.12 C 246.02 47.41 245.99 46.00 245.98 45.29 C 246.99 43.66 248.28 42.24 249.83 41.10 C 250.05 36.93 252.38 32.68 256.55 31.38 C 257.13 29.71 257.53 27.97 258.16 26.31 C 259.51 23.64 261.67 21.51 264.25 20.03 Z" />
<path fill="#ececec" opacity="1.00" d=" M 85.03 43.45 C 86.13 41.84 87.10 40.15 88.03 38.44 C 91.60 38.73 94.71 40.49 97.80 42.13 C 97.57 42.76 97.10 44.02 96.86 44.65 C 98.50 45.68 100.18 46.65 101.94 47.46 C 102.55 49.10 102.94 50.80 103.13 52.54 C 100.85 54.47 98.28 56.46 97.77 59.60 C 98.91 60.47 100.05 61.34 101.20 62.20 C 100.45 64.63 99.30 66.90 97.95 69.05 C 96.76 69.03 95.58 69.01 94.39 69.00 C 93.59 69.83 92.79 70.65 91.97 71.46 C 91.91 73.36 91.94 75.25 92.05 77.14 C 90.46 78.81 88.61 80.19 86.75 81.53 C 86.18 81.34 85.03 80.96 84.46 80.77 C 83.51 80.15 82.47 79.82 81.33 79.78 C 80.58 81.28 79.77 82.75 78.94 84.21 C 75.31 83.71 71.80 82.37 68.95 80.02 C 68.96 79.35 68.98 77.99 69.00 77.32 C 67.08 76.71 65.55 75.37 64.03 74.11 C 64.02 72.56 64.01 71.00 64.01 69.45 C 65.39 68.39 66.73 67.28 68.02 66.12 C 68.03 64.49 68.06 62.87 68.07 61.24 C 67.44 60.93 66.18 60.31 65.56 59.99 C 65.98 57.50 66.99 55.18 68.19 52.96 C 69.63 52.91 71.27 53.63 72.60 52.84 C 73.43 51.77 74.16 50.63 74.94 49.53 C 74.97 47.80 74.99 46.07 75.02 44.35 C 76.81 43.46 78.36 42.21 80.03 41.13 C 81.91 41.17 83.36 42.75 85.03 43.45 M 79.39 67.34 C 83.24 65.84 85.22 61.98 86.92 58.49 C 86.95 57.01 86.96 55.52 86.94 54.04 C 82.42 56.90 79.28 61.88 79.39 67.34 Z" />
<path fill="#ececec" opacity="1.00" d=" M 268.81 222.42 C 268.95 222.00 269.24 221.15 269.39 220.73 C 269.63 221.44 270.12 222.88 270.36 223.60 C 273.26 224.57 276.37 225.27 278.83 227.17 C 281.23 228.98 282.17 232.77 280.27 235.26 C 277.79 238.72 273.25 239.49 269.39 240.47 C 261.80 241.89 253.44 241.26 246.61 237.43 C 243.53 236.01 241.70 231.83 243.93 228.93 C 247.23 224.71 252.99 224.11 257.62 222.07 C 258.27 223.57 258.93 225.05 259.65 226.52 C 260.01 227.12 260.39 227.72 260.78 228.32 C 258.67 228.42 256.58 228.66 254.54 229.21 C 254.35 229.07 253.96 228.77 253.77 228.62 C 252.98 228.55 251.42 228.41 250.63 228.34 C 250.52 229.32 250.42 230.31 250.32 231.31 C 251.44 231.77 252.57 232.25 253.71 232.68 C 257.92 234.21 262.33 236.26 266.91 235.31 C 267.18 233.62 267.53 231.92 268.51 230.48 C 268.50 229.72 268.48 228.19 268.47 227.43 C 268.48 225.75 268.56 224.07 268.81 222.42 Z" />
</g>
<g id="#2a454eff">
<path fill="#2a454e" opacity="1.00" d=" M 191.88 9.79 C 194.74 8.24 197.58 5.98 201.02 6.20 C 204.62 6.52 207.73 8.82 210.03 11.48 C 185.18 25.39 160.68 39.90 135.98 54.06 C 133.96 55.04 133.08 57.20 132.24 59.13 C 132.11 58.44 131.85 57.05 131.71 56.35 C 129.05 54.04 125.76 52.63 122.76 50.80 C 124.41 48.28 127.31 47.14 129.79 45.64 C 150.52 33.75 171.16 21.69 191.88 9.79 Z" />
<path fill="#2a454e" opacity="1.00" d=" M 169.71 47.71 C 175.15 44.92 180.12 41.20 185.86 39.03 C 185.64 40.53 186.37 42.71 184.59 43.47 C 178.46 47.11 172.35 50.84 165.96 54.01 C 164.14 51.04 167.38 48.87 169.71 47.71 Z" />
<path fill="#2a454e" opacity="1.00" d=" M 156.41 56.42 C 156.77 53.65 159.45 52.52 161.96 52.95 C 161.65 54.78 161.62 56.86 160.22 58.26 C 158.91 59.85 155.58 58.64 156.41 56.42 Z" />
<path fill="#2a454e" opacity="1.00" d=" M 256.08 96.30 C 259.64 95.93 263.90 95.56 266.61 98.40 C 270.32 101.59 270.58 106.79 271.12 111.30 C 271.51 117.97 274.95 124.03 274.92 130.77 C 273.11 132.81 271.03 134.64 268.46 135.65 C 265.23 135.61 262.00 135.49 258.79 135.25 C 253.86 133.20 252.35 126.89 254.18 122.24 L 254.31 121.78 C 254.92 118.30 253.93 114.39 256.88 111.72 C 257.61 110.71 257.55 109.36 257.88 108.20 C 256.19 108.33 254.52 108.48 252.84 108.65 C 252.58 106.07 252.38 103.49 252.22 100.90 C 250.90 102.60 249.55 104.26 248.19 105.92 C 248.17 105.26 248.12 103.94 248.09 103.28 L 248.05 102.87 C 249.73 99.79 252.25 96.47 256.08 96.30 Z" />
<path fill="#2a454e" opacity="1.00" d=" M 166.43 203.35 C 169.29 201.71 172.15 200.07 175.01 198.43 C 175.20 199.02 175.59 200.21 175.78 200.80 C 174.13 203.17 172.37 206.37 168.99 206.14 C 167.32 206.62 167.28 204.22 166.43 203.35 Z" />
<path fill="#2a454e" opacity="1.00" d=" M 250.32 231.31 C 250.42 230.31 250.52 229.32 250.63 228.34 C 251.42 228.41 252.98 228.55 253.77 228.62 C 253.96 228.77 254.35 229.07 254.54 229.21 C 257.32 232.49 261.87 231.53 265.63 231.67 C 265.69 232.86 265.75 234.05 265.82 235.25 C 261.73 234.62 257.82 233.20 253.71 232.68 C 252.57 232.25 251.44 231.77 250.32 231.31 Z" />
</g>
<g id="#385a64ff">
<path fill="#385a64" opacity="1.00" d=" M 210.03 11.48 C 211.49 22.64 210.02 34.00 210.80 45.23 C 209.66 45.86 208.55 46.54 207.44 47.21 C 207.45 43.91 207.45 40.61 207.36 37.32 C 205.79 37.73 204.20 38.15 202.80 38.99 C 184.34 49.78 165.72 60.30 147.26 71.08 C 143.32 73.49 138.99 75.34 135.51 78.42 C 134.02 82.10 134.75 86.16 134.64 90.01 C 134.63 128.03 134.70 166.05 134.59 204.06 C 134.53 205.41 134.94 206.70 135.55 207.88 C 140.13 206.23 144.15 203.44 148.29 200.94 C 147.71 204.22 147.77 207.57 147.94 210.90 C 148.45 211.35 149.48 212.27 150.00 212.73 C 155.63 209.88 160.94 206.45 166.43 203.35 C 167.28 204.22 167.32 206.62 168.99 206.14 C 172.37 206.37 174.13 203.17 175.78 200.80 C 175.59 200.21 175.20 199.02 175.01 198.43 C 186.81 191.61 198.61 184.80 210.48 178.10 C 210.58 179.57 210.69 181.05 210.82 182.53 C 211.18 186.13 209.62 189.68 206.30 191.32 C 182.12 205.32 157.89 219.23 133.73 233.25 C 132.39 233.16 131.06 233.01 129.75 232.74 C 130.32 232.50 131.47 232.02 132.04 231.78 C 131.76 218.20 131.79 204.62 131.84 191.04 C 131.83 151.69 131.82 112.34 131.84 72.99 C 131.78 68.37 131.70 63.73 132.24 59.13 C 133.08 57.20 133.96 55.04 135.98 54.06 C 160.68 39.90 185.18 25.39 210.03 11.48 M 169.71 47.71 C 167.38 48.87 164.14 51.04 165.96 54.01 C 172.35 50.84 178.46 47.11 184.59 43.47 C 186.37 42.71 185.64 40.53 185.86 39.03 C 180.12 41.20 175.15 44.92 169.71 47.71 M 156.41 56.42 C 155.58 58.64 158.91 59.85 160.22 58.26 C 161.62 56.86 161.65 54.78 161.96 52.95 C 159.45 52.52 156.77 53.65 156.41 56.42 Z" />
<path fill="#385a64" opacity="1.00" d=" M 265.58 227.60 C 266.30 227.56 267.75 227.47 268.47 227.43 C 268.48 228.19 268.50 229.72 268.51 230.48 C 267.53 231.92 267.18 233.62 266.91 235.31 C 262.33 236.26 257.92 234.21 253.71 232.68 C 257.82 233.20 261.73 234.62 265.82 235.25 C 265.75 234.05 265.69 232.86 265.63 231.67 L 265.61 231.17 C 265.58 229.98 265.57 228.79 265.58 227.60 Z" />
</g>
<g id="#ffffffff">
<path fill="#ffffff" opacity="1.00" d=" M 202.80 38.99 C 204.20 38.15 205.79 37.73 207.36 37.32 C 207.45 40.61 207.45 43.91 207.44 47.21 C 191.77 56.38 175.95 65.30 160.28 74.48 C 156.34 76.85 152.14 78.83 148.58 81.78 C 147.24 85.72 147.82 89.93 147.75 94.00 C 147.75 126.00 147.75 158.00 147.75 190.01 C 147.78 193.65 147.39 197.36 148.29 200.94 C 144.15 203.44 140.13 206.23 135.55 207.88 C 135.69 164.73 135.75 121.57 135.51 78.42 C 138.99 75.34 143.32 73.49 147.26 71.08 C 165.72 60.30 184.34 49.78 202.80 38.99 Z" />
<path fill="#ffffff" opacity="1.00" d=" M 204.28 51.12 C 209.48 48.30 214.40 44.93 219.80 42.47 C 219.56 70.19 219.96 97.91 219.59 125.63 C 217.58 122.51 218.43 118.66 218.40 115.18 C 217.24 116.11 216.09 117.05 214.93 117.99 C 213.78 116.44 212.65 114.87 211.46 113.36 C 212.23 110.63 212.54 107.79 212.33 104.96 L 211.36 104.59 C 193.21 114.31 175.75 125.34 157.63 135.13 C 156.33 136.40 156.36 138.30 156.39 140.00 C 156.50 141.26 156.14 142.99 157.69 143.49 C 158.27 143.14 159.41 142.46 159.99 142.12 C 175.87 132.82 191.76 123.49 207.86 114.59 L 209.20 114.31 C 210.44 117.51 206.61 121.52 210.17 123.82 C 215.19 127.32 217.60 133.00 220.52 138.16 C 220.04 147.77 220.48 157.40 220.30 167.02 C 220.40 168.95 219.55 170.95 217.77 171.84 C 197.34 183.67 176.75 195.23 156.45 207.28 C 154.39 208.26 152.29 209.17 150.20 210.09 C 150.11 168.43 150.44 126.76 150.04 85.10 C 150.31 83.58 150.54 81.77 152.20 81.13 C 169.55 71.13 186.86 61.02 204.28 51.12 M 187.65 70.76 C 179.33 74.06 174.18 82.38 171.81 90.67 C 171.03 95.21 170.69 100.50 174.09 104.13 C 175.53 106.49 178.63 105.60 180.91 105.46 C 186.77 103.97 190.78 99.11 194.55 94.71 L 194.32 94.19 C 196.33 91.13 197.71 87.66 198.45 84.09 C 198.67 80.17 199.41 75.56 196.45 72.41 C 194.45 69.66 190.55 70.19 187.65 70.76 M 157.47 123.67 C 157.38 124.79 157.29 125.91 157.21 127.03 C 158.83 126.59 160.43 126.03 161.86 125.12 C 166.99 122.01 172.28 119.16 177.41 116.05 C 177.42 115.11 177.43 113.22 177.44 112.28 C 170.57 115.67 164.01 119.68 157.47 123.67 M 210.58 132.17 C 207.78 134.35 204.60 135.93 201.55 137.71 C 186.85 146.02 172.32 154.63 157.60 162.92 C 157.33 163.27 156.78 163.98 156.50 164.33 C 156.49 166.48 156.49 168.63 156.47 170.78 C 157.14 170.80 157.81 170.83 158.48 170.87 C 171.54 162.65 185.17 155.31 198.48 147.48 C 202.85 145.13 206.92 142.21 211.51 140.27 C 213.48 138.12 212.15 134.82 212.52 132.19 C 211.87 132.18 211.22 132.17 210.58 132.17 M 164.86 146.91 C 161.74 149.02 156.29 150.07 157.19 154.94 C 163.70 152.29 169.52 148.10 175.68 144.71 C 177.71 143.98 177.57 141.91 177.63 140.14 C 172.95 141.48 169.16 144.75 164.86 146.91 M 192.64 158.60 C 187.68 161.42 182.80 164.36 177.79 167.08 C 177.43 170.29 177.42 173.53 177.53 176.75 C 180.76 176.03 183.38 173.91 186.24 172.36 C 191.31 169.33 196.60 166.64 201.49 163.30 C 201.53 160.22 201.56 157.15 201.50 154.08 C 198.24 154.92 195.54 156.99 192.64 158.60 Z" />
<path fill="#ffffff" opacity="1.00" d=" M 233.73 133.94 C 235.51 131.93 237.41 130.02 239.49 128.31 C 239.42 128.67 239.29 129.37 239.23 129.73 C 237.76 131.55 235.98 133.17 233.73 133.94 Z" />
<path fill="#ffffff" opacity="1.00" d=" M 222.99 130.00 C 225.66 131.71 226.94 135.18 229.07 137.57 C 229.70 137.16 230.97 136.33 231.60 135.92 C 230.87 136.96 230.15 138.02 229.45 139.08 C 226.72 136.50 224.68 133.33 222.99 130.00 Z" />
</g>
<g id="#c6f7f0ff">
<path fill="#c6f7f0" opacity="1.00" d=" M 219.48 39.30 C 220.70 40.00 222.96 40.34 222.98 42.05 C 223.04 69.72 222.96 97.40 223.02 125.08 C 223.02 126.60 222.90 128.11 222.66 129.61 L 221.89 128.75 C 222.14 105.15 221.94 81.56 222.00 57.96 C 221.91 52.49 222.26 47.01 221.78 41.55 C 221.32 41.31 220.41 40.82 219.95 40.58 C 217.51 41.70 215.15 42.99 212.74 44.19 L 212.82 43.63 L 213.02 42.26 C 213.61 42.03 214.80 41.55 215.39 41.32 C 216.75 40.63 218.12 39.98 219.48 39.30 Z" />
</g>
<g id="#00dfc0ff">
<path fill="#00dfc0" opacity="1.00" d=" M 212.74 44.19 C 215.15 42.99 217.51 41.70 219.95 40.58 C 220.41 40.82 221.32 41.31 221.78 41.55 C 221.28 41.78 220.29 42.24 219.80 42.47 C 214.40 44.93 209.48 48.30 204.28 51.12 C 186.86 61.02 169.55 71.13 152.20 81.13 C 150.54 81.77 150.31 83.58 150.04 85.10 C 149.57 83.99 149.09 82.88 148.58 81.78 C 152.14 78.83 156.34 76.85 160.28 74.48 C 175.95 65.30 191.77 56.38 207.44 47.21 C 208.55 46.54 209.66 45.86 210.80 45.23 C 211.28 44.97 212.25 44.45 212.74 44.19 Z" />
<path fill="#00dfc0" opacity="1.00" d=" M 187.65 70.76 C 190.55 70.19 194.45 69.66 196.45 72.41 C 199.41 75.56 198.67 80.17 198.45 84.09 C 197.71 87.66 196.33 91.13 194.32 94.19 C 193.29 91.81 192.40 88.36 189.01 89.21 C 181.72 90.50 176.87 97.65 176.21 104.73 C 175.68 104.58 174.62 104.28 174.09 104.13 C 170.69 100.50 171.03 95.21 171.81 90.67 C 174.18 82.38 179.33 74.06 187.65 70.76 M 181.71 89.78 C 182.57 89.72 184.29 89.59 185.15 89.53 C 187.20 87.09 189.88 84.44 189.49 80.96 C 189.74 78.83 186.52 77.69 185.07 79.00 C 181.75 81.19 178.98 86.14 181.71 89.78 Z" />
<path fill="#00dfc0" opacity="1.00" d=" M 220.30 167.02 C 220.48 157.40 220.04 147.77 220.52 138.16 C 220.83 138.76 221.47 139.96 221.79 140.56 C 221.77 145.36 221.65 150.17 221.72 154.98 C 224.92 153.59 227.25 149.96 231.12 150.54 C 233.66 151.91 232.09 155.02 231.28 157.02 C 229.54 160.32 228.04 163.78 228.05 167.59 C 229.52 167.60 231.00 167.61 232.47 167.62 C 232.49 168.93 232.66 170.26 232.43 171.56 C 230.16 177.42 224.90 181.43 219.30 183.88 C 219.62 181.73 218.83 179.09 220.04 177.22 C 222.96 175.85 226.12 174.70 228.20 172.09 C 225.72 173.58 223.20 175.01 220.51 176.12 C 220.42 175.00 220.25 172.77 220.16 171.65 C 219.83 173.26 219.60 174.88 219.39 176.52 C 218.86 176.60 217.81 176.77 217.28 176.86 C 216.58 176.19 215.89 175.53 215.20 174.88 C 216.30 176.57 217.41 178.26 218.52 179.95 C 218.52 181.40 218.52 182.85 218.54 184.30 C 216.76 185.38 214.87 186.26 212.94 187.02 C 212.21 185.52 211.48 184.04 210.82 182.53 C 210.69 181.05 210.58 179.57 210.48 178.10 C 198.61 184.80 186.81 191.61 175.01 198.43 C 172.15 200.07 169.29 201.71 166.43 203.35 C 160.94 206.45 155.63 209.88 150.00 212.73 C 149.48 212.27 148.45 211.35 147.94 210.90 C 147.77 207.57 147.71 204.22 148.29 200.94 C 149.32 204.22 149.26 207.68 149.24 211.09 C 152.10 210.83 154.33 209.04 156.45 207.28 C 176.75 195.23 197.34 183.67 217.77 171.84 C 219.55 170.95 220.40 168.95 220.30 167.02 M 221.59 167.74 C 224.24 165.99 224.68 162.61 226.26 160.07 C 227.08 158.12 228.97 156.29 228.32 154.01 C 224.52 157.44 222.03 162.66 221.59 167.74 Z" />
<path fill="#00dfc0" opacity="1.00" d=" M 72.09 155.19 C 73.03 151.39 76.72 147.29 80.97 148.81 C 84.88 151.76 85.18 157.18 88.04 160.89 C 89.48 162.52 91.79 162.50 93.78 162.25 C 96.22 161.90 98.67 161.47 101.15 161.51 C 101.67 161.57 102.70 161.70 103.21 161.76 C 105.45 163.87 108.30 165.98 108.45 169.34 C 109.15 172.18 108.42 175.95 111.12 177.88 C 114.67 179.07 118.67 179.22 121.58 181.91 C 121.53 190.96 121.61 200.02 121.53 209.08 C 115.60 206.98 110.38 203.34 105.49 199.47 C 103.38 198.01 103.09 195.30 102.63 192.99 C 101.68 187.24 100.60 181.49 100.45 175.64 C 98.90 177.17 99.51 179.39 99.70 181.31 C 100.41 186.07 100.61 190.90 101.45 195.65 C 91.25 187.54 85.64 175.36 80.29 163.81 C 80.45 166.34 80.98 168.86 82.16 171.13 C 86.63 180.37 92.16 189.27 99.68 196.34 C 103.39 199.88 107.70 202.69 111.63 205.96 C 108.08 207.52 104.28 208.26 100.48 208.89 C 104.82 209.89 109.23 208.51 113.19 206.79 C 115.99 208.10 118.76 209.47 121.53 210.83 C 121.57 215.33 121.54 219.82 121.60 224.32 C 112.38 224.78 102.47 225.41 94.16 220.64 C 90.03 218.29 85.54 214.26 86.30 209.02 C 86.64 205.81 90.46 204.62 91.62 201.83 C 92.49 198.86 89.94 196.75 88.09 194.90 C 81.48 188.59 75.29 181.15 73.12 172.06 C 71.79 166.58 70.80 160.76 72.09 155.19 Z" />
<path fill="#00dfc0" opacity="1.00" d=" M 44.31 199.26 C 47.00 197.26 50.54 199.98 50.62 202.93 C 51.15 207.71 49.66 212.38 49.50 217.14 C 50.93 218.72 52.54 220.20 53.63 222.06 C 53.74 222.92 53.97 224.65 54.08 225.52 C 52.83 227.26 51.68 229.07 50.51 230.86 C 47.98 233.37 44.61 234.85 41.46 236.42 C 41.57 235.56 41.79 233.86 41.90 233.00 C 45.03 230.25 49.58 227.77 49.71 223.09 C 47.43 225.97 45.18 228.90 42.35 231.28 C 41.27 225.79 42.78 220.28 43.45 214.85 C 43.88 211.06 45.90 207.46 45.36 203.59 C 41.76 210.95 41.64 219.33 40.23 227.26 C 38.89 225.44 37.67 223.54 36.47 221.62 C 35.99 225.02 38.82 227.28 40.41 229.92 C 40.84 232.27 40.66 234.67 40.68 237.05 C 37.95 238.19 35.05 242.00 31.95 240.02 C 31.00 236.98 32.59 233.94 32.68 230.89 C 30.46 227.85 27.00 223.50 29.70 219.74 C 31.33 216.07 36.65 218.79 38.21 215.05 C 39.65 209.72 38.71 202.34 44.31 199.26 Z" />
</g>
<g id="#4de8d2ff">
<path fill="#4de8d2" opacity="1.00" d=" M 221.78 41.55 C 222.26 47.01 221.91 52.49 222.00 57.96 C 221.94 81.56 222.14 105.15 221.89 128.75 C 221.02 127.79 220.19 126.77 219.59 125.63 C 219.96 97.91 219.56 70.19 219.80 42.47 C 220.29 42.24 221.28 41.78 221.78 41.55 Z" />
</g>
<g id="#1a2e35ff">
<path fill="#1a2e35" opacity="1.00" d=" M 122.76 50.80 C 125.76 52.63 129.05 54.04 131.71 56.35 C 131.85 57.05 132.11 58.44 132.24 59.13 C 131.70 63.73 131.78 68.37 131.84 72.99 C 131.82 112.34 131.83 151.69 131.84 191.04 C 131.79 204.62 131.76 218.20 132.04 231.78 C 131.47 232.02 130.32 232.50 129.75 232.74 C 126.29 231.55 123.18 229.24 121.60 225.87 C 121.60 225.48 121.60 224.71 121.60 224.32 C 121.54 219.82 121.57 215.33 121.53 210.83 C 121.53 210.39 121.53 209.52 121.53 209.08 C 121.61 200.02 121.53 190.96 121.58 181.91 C 121.57 179.50 121.55 177.09 121.53 174.69 C 122.14 133.92 122.05 93.14 121.95 52.37 C 122.15 51.97 122.56 51.19 122.76 50.80 M 124.56 82.92 C 124.05 85.26 125.92 86.82 127.65 87.95 C 128.09 87.46 128.99 86.46 129.43 85.96 C 128.96 83.95 126.76 80.57 124.56 82.92 M 124.00 99.12 C 124.94 101.22 126.21 103.45 128.91 102.99 C 128.69 101.59 128.95 100.01 128.15 98.77 C 126.85 97.62 125.26 98.37 124.00 99.12 Z" />
</g>
<g id="#98a1a5ff">
<path fill="#98a1a5" opacity="1.00" d=" M 121.25 53.66 L 121.95 52.37 C 122.05 93.14 122.14 133.92 121.53 174.69 L 121.52 174.15 C 121.04 163.74 121.76 153.30 121.12 142.90 C 120.82 114.60 121.12 86.30 120.97 58.00 C 121.05 56.56 120.78 55.03 121.25 53.66 Z" />
</g>
<g id="#7c9299ff">
<path fill="#7c9299" opacity="1.00" d=" M 134.64 90.01 C 134.75 86.16 134.02 82.10 135.51 78.42 C 135.75 121.57 135.69 164.73 135.55 207.88 C 134.94 206.70 134.53 205.41 134.59 204.06 C 134.70 166.05 134.63 128.03 134.64 90.01 Z" />
</g>
<g id="#a4f5ecff">
<path fill="#a4f5ec" opacity="1.00" d=" M 181.71 89.78 C 178.98 86.14 181.75 81.19 185.07 79.00 C 186.52 77.69 189.74 78.83 189.49 80.96 C 189.88 84.44 187.20 87.09 185.15 89.53 C 184.29 89.59 182.57 89.72 181.71 89.78 Z" />
<path fill="#a4f5ec" opacity="1.00" d=" M 176.21 104.73 C 176.87 97.65 181.72 90.50 189.01 89.21 C 192.40 88.36 193.29 91.81 194.32 94.19 L 194.55 94.71 C 190.78 99.11 186.77 103.97 180.91 105.46 C 178.63 105.60 175.53 106.49 174.09 104.13 C 174.62 104.28 175.68 104.58 176.21 104.73 Z" />
<path fill="#a4f5ec" opacity="1.00" d=" M 252.00 122.49 C 252.54 122.42 253.64 122.30 254.18 122.24 C 252.35 126.89 253.86 133.20 258.79 135.25 C 261.29 136.64 264.19 136.60 266.97 136.64 C 266.95 137.10 266.92 138.03 266.91 138.49 L 266.88 140.53 L 266.04 139.62 C 265.81 139.38 265.35 138.91 265.12 138.67 C 262.96 139.54 260.78 140.67 259.73 142.89 C 262.06 142.39 264.34 141.72 266.60 141.00 C 267.07 142.26 267.51 143.53 267.88 144.83 C 267.75 145.07 267.50 145.56 267.37 145.81 C 262.15 150.18 254.96 149.81 248.94 147.49 C 247.69 157.76 246.54 168.05 244.76 178.24 C 244.20 170.45 247.09 162.94 246.73 155.19 L 247.07 155.31 C 247.09 154.09 247.13 152.87 247.18 151.65 C 247.74 150.27 248.17 148.82 248.27 147.32 C 248.94 143.21 247.18 139.13 247.97 135.04 C 250.57 131.34 251.80 126.97 252.00 122.49 Z" />
<path fill="#a4f5ec" opacity="1.00" d=" M 80.29 163.81 C 85.64 175.36 91.25 187.54 101.45 195.65 C 100.61 190.90 100.41 186.07 99.70 181.31 C 99.51 179.39 98.90 177.17 100.45 175.64 C 100.60 181.49 101.68 187.24 102.63 192.99 C 103.09 195.30 103.38 198.01 105.49 199.47 C 110.38 203.34 115.60 206.98 121.53 209.08 C 121.53 209.52 121.53 210.39 121.53 210.83 C 118.76 209.47 115.99 208.10 113.19 206.79 C 109.23 208.51 104.82 209.89 100.48 208.89 C 104.28 208.26 108.08 207.52 111.63 205.96 C 107.70 202.69 103.39 199.88 99.68 196.34 C 92.16 189.27 86.63 180.37 82.16 171.13 C 80.98 168.86 80.45 166.34 80.29 163.81 Z" />
<path fill="#a4f5ec" opacity="1.00" d=" M 45.36 203.59 C 45.90 207.46 43.88 211.06 43.45 214.85 C 42.78 220.28 41.27 225.79 42.35 231.28 C 45.18 228.90 47.43 225.97 49.71 223.09 C 49.58 227.77 45.03 230.25 41.90 233.00 C 41.79 233.86 41.57 235.56 41.46 236.42 C 41.04 234.27 41.45 231.88 40.41 229.92 C 38.82 227.28 35.99 225.02 36.47 221.62 C 37.67 223.54 38.89 225.44 40.23 227.26 C 41.64 219.33 41.76 210.95 45.36 203.59 Z" />
</g>
<g id="#31515bff">
<path fill="#31515b" opacity="1.00" d=" M 124.56 82.92 C 126.76 80.57 128.96 83.95 129.43 85.96 C 128.99 86.46 128.09 87.46 127.65 87.95 C 125.92 86.82 124.05 85.26 124.56 82.92 Z" />
</g>
<g id="#59ead5ff">
<path fill="#59ead5" opacity="1.00" d=" M 147.75 94.00 C 147.82 89.93 147.24 85.72 148.58 81.78 C 149.09 82.88 149.57 83.99 150.04 85.10 C 150.44 126.76 150.11 168.43 150.20 210.09 C 152.29 209.17 154.39 208.26 156.45 207.28 C 154.33 209.04 152.10 210.83 149.24 211.09 C 149.26 207.68 149.32 204.22 148.29 200.94 C 147.39 197.36 147.78 193.65 147.75 190.01 C 147.75 158.00 147.75 126.00 147.75 94.00 Z" />
</g>
<g id="#f5f5f5ff">
<path fill="#f5f5f5" opacity="1.00" d=" M 254.42 95.05 C 257.46 95.18 260.51 95.22 263.55 95.09 C 266.62 96.76 269.21 99.28 270.84 102.39 C 270.90 103.83 270.81 105.37 271.86 106.54 C 272.12 109.17 271.12 112.22 272.83 114.50 C 273.05 115.82 272.48 117.50 273.78 118.43 C 273.91 121.73 275.90 124.63 275.87 127.93 C 276.04 129.47 275.55 131.26 276.69 132.55 C 276.88 133.58 277.22 134.55 277.72 135.47 C 277.79 136.60 278.18 137.60 278.87 138.46 C 278.92 138.97 279.04 139.98 279.10 140.48 C 280.18 141.59 279.87 143.17 280.02 144.56 C 278.05 147.53 275.91 150.38 273.87 153.30 C 275.67 154.64 274.74 157.07 274.99 158.95 C 275.24 162.10 274.29 165.64 275.41 168.55 C 285.29 175.34 295.37 182.89 300.95 193.82 C 306.93 203.95 307.19 217.17 301.80 227.61 C 294.74 241.67 281.44 251.27 267.90 258.54 C 240.22 273.01 208.95 279.10 178.05 281.39 C 170.71 282.21 163.32 281.81 155.95 281.90 C 138.86 282.26 121.80 280.39 104.94 277.69 C 79.51 272.95 53.98 265.24 32.59 250.23 C 21.78 242.34 11.78 231.66 9.06 218.14 C 6.28 205.27 12.21 192.16 20.98 182.94 C 34.08 169.13 51.74 160.77 69.41 154.42 C 72.04 153.76 72.27 150.60 74.30 149.19 C 76.73 147.23 80.03 148.19 82.89 148.01 C 82.93 148.52 83.02 149.56 83.07 150.07 C 85.43 149.59 87.78 149.04 90.11 148.41 C 90.08 144.09 90.02 139.78 90.07 135.47 C 91.86 133.97 90.35 131.30 91.66 129.53 C 91.94 129.05 92.48 128.09 92.75 127.61 C 93.66 124.50 96.08 122.34 98.31 120.16 C 100.95 119.11 103.77 118.86 106.58 119.03 C 108.98 120.59 112.07 122.29 112.25 125.51 C 114.32 131.36 113.91 137.72 114.08 143.89 C 116.42 143.56 118.77 143.24 121.12 142.90 C 121.76 153.30 121.04 163.74 121.52 174.15 C 116.73 172.14 114.41 166.94 113.61 162.12 C 112.90 155.12 113.74 148.05 113.03 141.05 C 112.52 135.06 113.01 128.68 110.09 123.21 C 108.12 119.70 103.48 119.72 100.10 120.77 C 96.02 122.57 93.87 126.91 92.57 130.94 C 89.74 141.18 90.75 152.16 93.78 162.25 C 91.79 162.50 89.48 162.52 88.04 160.89 C 85.18 157.18 84.88 151.76 80.97 148.81 C 76.72 147.29 73.03 151.39 72.09 155.19 C 70.80 160.76 71.79 166.58 73.12 172.06 C 75.29 181.15 81.48 188.59 88.09 194.90 C 89.94 196.75 92.49 198.86 91.62 201.83 C 90.46 204.62 86.64 205.81 86.30 209.02 C 85.54 214.26 90.03 218.29 94.16 220.64 C 102.47 225.41 112.38 224.78 121.60 224.32 C 121.60 224.71 121.60 225.48 121.60 225.87 C 121.06 227.39 120.42 228.88 119.80 230.37 C 122.26 232.42 124.84 234.55 128.03 235.29 C 130.12 235.46 131.94 234.14 133.73 233.25 C 157.89 219.23 182.12 205.32 206.30 191.32 C 209.62 189.68 211.18 186.13 210.82 182.53 C 211.48 184.04 212.21 185.52 212.94 187.02 C 214.87 186.26 216.76 185.38 218.54 184.30 C 218.52 182.85 218.52 181.40 218.52 179.95 C 217.41 178.26 216.30 176.57 215.20 174.88 C 215.89 175.53 216.58 176.19 217.28 176.86 C 217.81 176.77 218.86 176.60 219.39 176.52 C 219.60 174.88 219.83 173.26 220.16 171.65 C 220.25 172.77 220.42 175.00 220.51 176.12 C 223.20 175.01 225.72 173.58 228.20 172.09 C 226.12 174.70 222.96 175.85 220.04 177.22 C 218.83 179.09 219.62 181.73 219.30 183.88 C 224.90 181.43 230.16 177.42 232.43 171.56 C 232.66 170.26 232.49 168.93 232.47 167.62 C 231.00 167.61 229.52 167.60 228.05 167.59 C 228.04 163.78 229.54 160.32 231.28 157.02 C 232.09 155.02 233.66 151.91 231.12 150.54 C 227.25 149.96 224.92 153.59 221.72 154.98 C 221.65 150.17 221.77 145.36 221.79 140.56 C 223.43 143.11 224.77 146.09 227.28 147.91 C 233.00 146.96 235.86 140.61 241.45 139.19 C 237.48 143.03 232.74 145.95 228.76 149.78 C 229.69 149.88 231.53 150.09 232.45 150.20 C 237.00 152.42 242.05 153.30 246.73 155.19 C 247.09 162.94 244.20 170.45 244.76 178.24 C 244.60 183.00 242.31 187.99 244.63 192.56 C 249.00 202.38 253.30 212.23 257.62 222.07 C 252.99 224.11 247.23 224.71 243.93 228.93 C 241.70 231.83 243.53 236.01 246.61 237.43 C 253.44 241.26 261.80 241.89 269.39 240.47 C 273.25 239.49 277.79 238.72 280.27 235.26 C 282.17 232.77 281.23 228.98 278.83 227.17 C 276.37 225.27 273.26 224.57 270.36 223.60 C 270.12 222.88 269.63 221.44 269.39 220.73 C 270.91 212.70 272.07 204.62 273.38 196.56 C 273.88 193.24 274.41 189.57 272.23 186.71 C 270.08 182.70 272.25 178.18 272.90 174.06 C 273.97 166.96 275.18 159.55 273.10 152.51 C 275.08 149.68 277.80 147.13 278.70 143.72 C 278.43 139.17 276.09 135.10 274.92 130.77 C 274.95 124.03 271.51 117.97 271.12 111.30 C 270.58 106.79 270.32 101.59 266.61 98.40 C 263.90 95.56 259.64 95.93 256.08 96.30 C 252.25 96.47 249.73 99.79 248.05 102.87 C 247.56 99.03 251.80 97.04 254.42 95.05 M 44.31 199.26 C 38.71 202.34 39.65 209.72 38.21 215.05 C 36.65 218.79 31.33 216.07 29.70 219.74 C 27.00 223.50 30.46 227.85 32.68 230.89 C 32.59 233.94 31.00 236.98 31.95 240.02 C 35.05 242.00 37.95 238.19 40.68 237.05 C 40.66 234.67 40.84 232.27 40.41 229.92 C 41.45 231.88 41.04 234.27 41.46 236.42 C 44.61 234.85 47.98 233.37 50.51 230.86 C 52.68 230.38 55.36 229.62 56.33 227.42 C 61.14 222.55 64.24 215.81 64.25 208.94 C 63.82 206.65 63.01 203.13 60.02 203.37 C 57.28 202.84 56.60 206.03 55.67 207.86 C 56.06 212.71 55.21 217.49 53.63 222.06 C 52.54 220.20 50.93 218.72 49.50 217.14 C 49.66 212.38 51.15 207.71 50.62 202.93 C 50.54 199.98 47.00 197.26 44.31 199.26 Z" />
<path fill="#f5f5f5" opacity="1.00" d=" M 248.20 106.40 C 248.37 110.07 248.98 113.71 249.92 117.27 C 250.82 117.35 252.62 117.51 253.52 117.58 C 253.75 118.99 254.06 120.38 254.31 121.78 L 254.18 122.24 C 253.64 122.30 252.54 122.42 252.00 122.49 C 248.93 121.97 246.25 123.48 243.71 124.97 C 245.71 121.92 250.13 119.30 253.35 122.28 C 253.30 121.52 253.19 120.00 253.13 119.24 C 251.77 118.87 250.45 118.43 249.15 117.93 C 248.83 115.49 247.71 113.25 247.23 110.87 C 247.55 109.38 247.92 107.90 248.20 106.40 Z" />
<path fill="#f5f5f5" opacity="1.00" d=" M 266.04 139.62 L 266.88 140.53 C 267.90 142.03 269.05 143.44 270.57 144.47 L 270.87 144.74 C 270.64 145.29 270.17 146.39 269.93 146.94 C 269.55 146.47 268.80 145.53 268.42 145.05 L 267.37 145.81 C 267.50 145.56 267.75 145.07 267.88 144.83 C 267.51 143.53 267.07 142.26 266.60 141.00 L 266.04 139.62 Z" />
<path fill="#f5f5f5" opacity="1.00" d=" M 259.39 174.44 C 259.75 177.98 260.00 181.52 260.24 185.07 C 260.46 189.32 262.11 193.72 260.13 197.80 C 259.10 194.82 257.26 192.28 255.15 189.99 C 256.09 184.69 257.76 179.55 259.39 174.44 Z" />
</g>
<g id="#375a64ff">
<path fill="#375a64" opacity="1.00" d=" M 124.00 99.12 C 125.26 98.37 126.85 97.62 128.15 98.77 C 128.95 100.01 128.69 101.59 128.91 102.99 C 126.21 103.45 124.94 101.22 124.00 99.12 Z" />
</g>
<g id="#ffa9a8ff">
<path fill="#ffa9a8" opacity="1.00" d=" M 248.19 105.92 C 249.55 104.26 250.90 102.60 252.22 100.90 C 252.38 103.49 252.58 106.07 252.84 108.65 C 254.52 108.48 256.19 108.33 257.88 108.20 C 257.55 109.36 257.61 110.71 256.88 111.72 C 255.85 112.32 254.72 112.74 253.80 113.48 C 253.57 114.84 253.48 116.20 253.52 117.58 C 252.62 117.51 250.82 117.35 249.92 117.27 C 248.98 113.71 248.37 110.07 248.20 106.40 L 248.19 105.92 Z" />
<path fill="#ffa9a8" opacity="1.00" d=" M 208.13 110.76 C 209.26 111.60 210.37 112.47 211.46 113.36 C 212.65 114.87 213.78 116.44 214.93 117.99 C 216.09 117.05 217.24 116.11 218.40 115.18 C 218.43 118.66 217.58 122.51 219.59 125.63 C 220.19 126.77 221.02 127.79 221.89 128.75 L 222.66 129.61 L 222.99 130.00 C 224.68 133.33 226.72 136.50 229.45 139.08 C 230.15 138.02 230.87 136.96 231.60 135.92 C 232.08 135.32 232.59 134.75 233.13 134.20 L 233.73 133.94 C 235.98 133.17 237.76 131.55 239.23 129.73 C 239.29 129.37 239.42 128.67 239.49 128.31 L 239.51 128.17 C 240.78 127.22 242.04 126.24 243.26 125.22 L 243.71 124.97 C 246.25 123.48 248.93 121.97 252.00 122.49 C 251.80 126.97 250.57 131.34 247.97 135.04 C 245.57 135.01 242.90 135.71 242.44 138.43 C 242.19 138.62 241.70 139.00 241.45 139.19 C 235.86 140.61 233.00 146.96 227.28 147.91 C 224.77 146.09 223.43 143.11 221.79 140.56 C 221.47 139.96 220.83 138.76 220.52 138.16 C 217.60 133.00 215.19 127.32 210.17 123.82 C 206.61 121.52 210.44 117.51 209.20 114.31 C 208.94 113.42 208.40 111.65 208.13 110.76 Z" />
<path fill="#ffa9a8" opacity="1.00" d=" M 259.65 226.52 C 261.37 226.19 263.07 225.83 264.79 225.51 C 265.20 227.37 265.48 229.26 265.61 231.17 L 265.63 231.67 C 261.87 231.53 257.32 232.49 254.54 229.21 C 256.58 228.66 258.67 228.42 260.78 228.32 C 260.39 227.72 260.01 227.12 259.65 226.52 Z" />
</g>
<g id="#f0f3f3ff">
<path fill="#f0f3f3" opacity="1.00" d=" M 247.47 103.21 L 248.09 103.28 C 248.12 103.94 248.17 105.26 248.19 105.92 L 247.51 105.88 L 246.96 105.06 C 247.09 104.60 247.34 103.68 247.47 103.21 Z" />
</g>
<g id="#00e6ccff">
<path fill="#00e6cc" opacity="1.00" d=" M 157.63 135.13 C 175.75 125.34 193.21 114.31 211.36 104.59 C 211.34 106.70 211.33 108.82 211.31 110.94 C 209.90 110.67 208.49 110.40 207.08 110.14 C 207.32 111.63 207.56 113.11 207.86 114.59 C 191.76 123.49 175.87 132.82 159.99 142.12 C 159.37 142.22 158.14 142.43 157.52 142.54 C 157.55 140.06 157.60 137.60 157.63 135.13 Z" />
<path fill="#00e6cc" opacity="1.00" d=" M 201.55 137.71 C 204.60 135.93 207.78 134.35 210.58 132.17 C 211.80 134.70 211.48 137.55 211.51 140.27 C 206.92 142.21 202.85 145.13 198.48 147.48 C 185.17 155.31 171.54 162.65 158.48 170.87 C 157.19 168.40 157.49 165.60 157.60 162.92 C 172.32 154.63 186.85 146.02 201.55 137.71 Z" />
</g>
<g id="#76d9caff">
<path fill="#76d9ca" opacity="1.00" d=" M 211.36 104.59 L 212.33 104.96 C 212.54 107.79 212.23 110.63 211.46 113.36 C 210.37 112.47 209.26 111.60 208.13 110.76 C 208.40 111.65 208.94 113.42 209.20 114.31 L 207.86 114.59 C 207.56 113.11 207.32 111.63 207.08 110.14 C 208.49 110.40 209.90 110.67 211.31 110.94 C 211.33 108.82 211.34 106.70 211.36 104.59 Z" />
</g>
<g id="#827277ff">
<path fill="#827277" opacity="1.00" d=" M 253.80 113.48 C 254.72 112.74 255.85 112.32 256.88 111.72 C 253.93 114.39 254.92 118.30 254.31 121.78 C 254.06 120.38 253.75 118.99 253.52 117.58 C 253.48 116.20 253.57 114.84 253.80 113.48 Z" />
</g>
<g id="#00c8acff">
<path fill="#00c8ac" opacity="1.00" d=" M 157.47 123.67 C 164.01 119.68 170.57 115.67 177.44 112.28 C 177.43 113.22 177.42 115.11 177.41 116.05 C 172.28 119.16 166.99 122.01 161.86 125.12 C 160.43 126.03 158.83 126.59 157.21 127.03 C 157.29 125.91 157.38 124.79 157.47 123.67 Z" />
<path fill="#00c8ac" opacity="1.00" d=" M 164.86 146.91 C 169.16 144.75 172.95 141.48 177.63 140.14 C 177.57 141.91 177.71 143.98 175.68 144.71 C 169.52 148.10 163.70 152.29 157.19 154.94 C 156.29 150.07 161.74 149.02 164.86 146.91 Z" />
<path fill="#00c8ac" opacity="1.00" d=" M 192.64 158.60 C 195.54 156.99 198.24 154.92 201.50 154.08 C 201.56 157.15 201.53 160.22 201.49 163.30 C 196.60 166.64 191.31 169.33 186.24 172.36 C 183.38 173.91 180.76 176.03 177.53 176.75 C 177.42 173.53 177.43 170.29 177.79 167.08 C 182.80 164.36 187.68 161.42 192.64 158.60 Z" />
</g>
<g id="#01b399ff">
<path fill="#01b399" opacity="1.00" d=" M 92.57 130.94 C 93.87 126.91 96.02 122.57 100.10 120.77 C 103.48 119.72 108.12 119.70 110.09 123.21 C 113.01 128.68 112.52 135.06 113.03 141.05 C 113.74 148.05 112.90 155.12 113.61 162.12 C 114.41 166.94 116.73 172.14 121.52 174.15 L 121.53 174.69 C 121.55 177.09 121.57 179.50 121.58 181.91 C 118.67 179.22 114.67 179.07 111.12 177.88 C 108.42 175.95 109.15 172.18 108.45 169.34 C 108.30 165.98 105.45 163.87 103.21 161.76 C 102.10 155.90 101.36 149.96 101.18 143.99 C 100.98 137.62 102.27 131.33 102.40 124.97 C 100.87 125.76 100.13 127.23 100.10 128.90 C 99.08 139.73 98.82 150.82 101.15 161.51 C 98.67 161.47 96.22 161.90 93.78 162.25 C 90.75 152.16 89.74 141.18 92.57 130.94 Z" />
<path fill="#01b399" opacity="1.00" d=" M 248.94 147.49 C 254.96 149.81 262.15 150.18 267.37 145.81 L 268.42 145.05 C 268.80 145.53 269.55 146.47 269.93 146.94 C 271.16 148.69 272.19 150.57 273.10 152.51 C 275.18 159.55 273.97 166.96 272.90 174.06 C 272.25 178.18 270.08 182.70 272.23 186.71 C 273.67 192.14 272.14 197.68 271.35 203.08 C 270.43 209.56 269.19 216.00 268.22 222.48 C 266.95 222.55 265.68 222.61 264.42 222.66 C 264.52 223.61 264.64 224.56 264.79 225.51 C 263.07 225.83 261.37 226.19 259.65 226.52 C 258.93 225.05 258.27 223.57 257.62 222.07 C 253.30 212.23 249.00 202.38 244.63 192.56 C 242.31 187.99 244.60 183.00 244.76 178.24 C 246.54 168.05 247.69 157.76 248.94 147.49 M 259.47 171.83 C 259.45 172.48 259.41 173.79 259.39 174.44 C 257.76 179.55 256.09 184.69 255.15 189.99 C 257.26 192.28 259.10 194.82 260.13 197.80 C 260.06 201.58 261.38 205.31 261.93 209.06 C 263.45 203.47 261.75 197.67 261.56 192.02 C 261.45 187.37 261.28 182.72 260.82 178.09 C 260.52 175.98 260.86 173.61 259.47 171.83 Z" />
<path fill="#01b399" opacity="1.00" d=" M 55.67 207.86 C 56.60 206.03 57.28 202.84 60.02 203.37 C 63.01 203.13 63.82 206.65 64.25 208.94 C 64.24 215.81 61.14 222.55 56.33 227.42 C 57.36 223.36 60.03 219.92 60.79 215.78 C 61.51 212.31 61.30 208.74 60.82 205.26 C 58.97 206.61 59.55 208.98 59.36 210.94 C 59.42 216.25 57.25 221.34 54.08 225.52 C 53.97 224.65 53.74 222.92 53.63 222.06 C 55.21 217.49 56.06 212.71 55.67 207.86 Z" />
</g>
<g id="#66d3c4ff">
<path fill="#66d3c4" opacity="1.00" d=" M 100.10 128.90 C 100.13 127.23 100.87 125.76 102.40 124.97 C 102.27 131.33 100.98 137.62 101.18 143.99 C 101.36 149.96 102.10 155.90 103.21 161.76 C 102.70 161.70 101.67 161.57 101.15 161.51 C 98.82 150.82 99.08 139.73 100.10 128.90 Z" />
</g>
<g id="#ff908fff">
<path fill="#ff908f" opacity="1.00" d=" M 268.46 135.65 C 271.03 134.64 273.11 132.81 274.92 130.77 C 276.09 135.10 278.43 139.17 278.70 143.72 C 277.80 147.13 275.08 149.68 273.10 152.51 C 272.19 150.57 271.16 148.69 269.93 146.94 C 270.17 146.39 270.64 145.29 270.87 144.74 L 270.57 144.47 L 270.45 143.93 C 271.86 140.94 269.26 138.38 268.03 135.88 L 268.46 135.65 Z" />
</g>
<g id="#96f5eaff">
<path fill="#96f5ea" opacity="1.00" d=" M 210.58 132.17 C 211.22 132.17 211.87 132.18 212.52 132.19 C 212.15 134.82 213.48 138.12 211.51 140.27 C 211.48 137.55 211.80 134.70 210.58 132.17 Z" />
</g>
<g id="#8bf3e7ff">
<path fill="#8bf3e7" opacity="1.00" d=" M 156.39 140.00 C 156.36 138.30 156.33 136.40 157.63 135.13 C 157.60 137.60 157.55 140.06 157.52 142.54 C 158.14 142.43 159.37 142.22 159.99 142.12 C 159.41 142.46 158.27 143.14 157.69 143.49 C 156.14 142.99 156.50 141.26 156.39 140.00 Z" />
<path fill="#8bf3e7" opacity="1.00" d=" M 156.50 164.33 C 156.78 163.98 157.33 163.27 157.60 162.92 C 157.49 165.60 157.19 168.40 158.48 170.87 C 157.81 170.83 157.14 170.80 156.47 170.78 C 156.49 168.63 156.49 166.48 156.50 164.33 Z" />
</g>
<g id="#e1edeaff">
<path fill="#e1edea" opacity="1.00" d=" M 242.44 138.43 C 242.90 135.71 245.57 135.01 247.97 135.04 C 247.18 139.13 248.94 143.21 248.27 147.32 C 247.06 143.57 246.88 139.60 245.88 135.79 C 244.75 136.68 243.60 137.56 242.44 138.43 Z" />
</g>
<g id="#649697ff">
<path fill="#649697" opacity="1.00" d=" M 258.79 135.25 C 262.00 135.49 265.23 135.61 268.46 135.65 L 268.03 135.88 C 267.76 136.07 267.23 136.45 266.97 136.64 C 264.19 136.60 261.29 136.64 258.79 135.25 Z" />
</g>
<g id="#f6d4d4ff">
<path fill="#f6d4d4" opacity="1.00" d=" M 266.97 136.64 C 267.23 136.45 267.76 136.07 268.03 135.88 C 269.26 138.38 271.86 140.94 270.45 143.93 C 270.29 143.30 269.96 142.05 269.80 141.42 C 269.26 140.08 268.25 139.03 266.91 138.49 C 266.92 138.03 266.95 137.10 266.97 136.64 Z" />
</g>
<g id="#5eecdaff">
<path fill="#5eecda" opacity="1.00" d=" M 259.73 142.89 C 260.78 140.67 262.96 139.54 265.12 138.67 C 265.35 138.91 265.81 139.38 266.04 139.62 L 266.60 141.00 C 264.34 141.72 262.06 142.39 259.73 142.89 Z" />
</g>
<g id="#ff0202ff">
</g>
<g id="#66ecd9ff">
<path fill="#66ecd9" opacity="1.00" d=" M 221.59 167.74 C 222.03 162.66 224.52 157.44 228.32 154.01 C 228.97 156.29 227.08 158.12 226.26 160.07 C 224.68 162.61 224.24 165.99 221.59 167.74 Z" />
</g>
<g id="#a9e3dbff">
<path fill="#a9e3db" opacity="1.00" d=" M 259.47 171.83 C 260.86 173.61 260.52 175.98 260.82 178.09 C 261.28 182.72 261.45 187.37 261.56 192.02 C 261.75 197.67 263.45 203.47 261.93 209.06 C 261.38 205.31 260.06 201.58 260.13 197.80 C 262.11 193.72 260.46 189.32 260.24 185.07 C 260.00 181.52 259.75 177.98 259.39 174.44 C 259.41 173.79 259.45 172.48 259.47 171.83 Z" />
</g>
<g id="#82d6cbff">
<path fill="#82d6cb" opacity="1.00" d=" M 272.23 186.71 C 274.41 189.57 273.88 193.24 273.38 196.56 C 272.07 204.62 270.91 212.70 269.39 220.73 C 269.24 221.15 268.95 222.00 268.81 222.42 L 268.22 222.48 C 269.19 216.00 270.43 209.56 271.35 203.08 C 272.14 197.68 273.67 192.14 272.23 186.71 Z" />
</g>
<g id="#68d3c4ff">
<path fill="#68d3c4" opacity="1.00" d=" M 59.36 210.94 C 59.55 208.98 58.97 206.61 60.82 205.26 C 61.30 208.74 61.51 212.31 60.79 215.78 C 60.03 219.92 57.36 223.36 56.33 227.42 C 55.36 229.62 52.68 230.38 50.51 230.86 C 51.68 229.07 52.83 227.26 54.08 225.52 C 57.25 221.34 59.42 216.25 59.36 210.94 Z" />
</g>
<g id="#fe9595ff">
<path fill="#fe9595" opacity="1.00" d=" M 268.22 222.48 L 268.81 222.42 C 268.56 224.07 268.48 225.75 268.47 227.43 C 267.75 227.47 266.30 227.56 265.58 227.60 C 265.57 228.79 265.58 229.98 265.61 231.17 C 265.48 229.26 265.20 227.37 264.79 225.51 C 264.64 224.56 264.52 223.61 264.42 222.66 C 265.68 222.61 266.95 222.55 268.22 222.48 Z" />
</g>
<g id="#e0e1e0ff">
<path fill="#e0e1e0" opacity="1.00" d=" M 119.80 230.37 C 120.42 228.88 121.06 227.39 121.60 225.87 C 123.18 229.24 126.29 231.55 129.75 232.74 C 131.06 233.01 132.39 233.16 133.73 233.25 C 131.94 234.14 130.12 235.46 128.03 235.29 C 124.84 234.55 122.26 232.42 119.80 230.37 Z" />
</g>
</svg>
